<svg xmlns="http://www.w3.org/2000/svg" width="1200" height="800" viewBox="0 0 1200 800" role="img" aria-labelledby="title desc">
  <title id="title">Compliance and Inspection</title>
  <desc id="desc">Illustration of clipboard checklist for fire code compliance audits.</desc>
  <defs>
    <linearGradient id="bg" x1="0" y1="0" x2="1" y2="1">
      <stop offset="0%" stop-color="#0f172a"/>
      <stop offset="100%" stop-color="#334155"/>
    </linearGradient>
  </defs>
  <rect width="1200" height="800" fill="url(#bg)"/>
  <circle cx="1040" cy="130" r="180" fill="#ffffff" opacity="0.05"/>

  <g transform="translate(370 150)">
    <rect x="120" y="70" width="340" height="500" rx="26" fill="#f8fafc"/>
    <rect x="210" y="28" width="160" height="60" rx="16" fill="#475569"/>
    <rect x="165" y="160" width="22" height="22" rx="4" fill="#0ea5e9"/>
    <path d="M195 172 L230 172" stroke="#334155" stroke-width="12" stroke-linecap="round"/>
    <rect x="165" y="245" width="22" height="22" rx="4" fill="#0ea5e9"/>
    <path d="M195 257 L315 257" stroke="#334155" stroke-width="12" stroke-linecap="round"/>
    <rect x="165" y="330" width="22" height="22" rx="4" fill="#0ea5e9"/>
    <path d="M195 342 L315 342" stroke="#334155" stroke-width="12" stroke-linecap="round"/>
    <path d="M388 430 L428 470 L512 388" stroke="#22c55e" stroke-width="20" fill="none" stroke-linecap="round" stroke-linejoin="round"/>
  </g>

  <text x="600" y="640" text-anchor="middle" font-family="Arial, Helvetica, sans-serif" font-size="58" font-weight="700" fill="#f8fafc">Compliance &amp; Inspection</text>
  <text x="600" y="690" text-anchor="middle" font-family="Arial, Helvetica, sans-serif" font-size="28" fill="#cbd5e1">Certified audits, reports, and code readiness</text>
</svg>