<svg xmlns="http://www.w3.org/2000/svg" width="1200" height="800" viewBox="0 0 1200 800" role="img" aria-labelledby="title desc">
  <title id="title">Sprinkler Systems</title>
  <desc id="desc">Illustration of sprinkler pipe and water spray.</desc>
  <defs>
    <linearGradient id="bg" x1="0" y1="0" x2="1" y2="1">
      <stop offset="0%" stop-color="#0b1f2a"/>
      <stop offset="100%" stop-color="#0f3b53"/>
    </linearGradient>
  </defs>
  <rect width="1200" height="800" fill="url(#bg)"/>
  <circle cx="1050" cy="130" r="180" fill="#ffffff" opacity="0.05"/>
  <circle cx="170" cy="700" r="220" fill="#ffffff" opacity="0.04"/>

  <g transform="translate(320 170)">
    <rect x="80" y="80" width="560" height="34" rx="16" fill="#94a3b8"/>
    <rect x="320" y="114" width="80" height="120" rx="20" fill="#64748b"/>
    <circle cx="360" cy="260" r="26" fill="#cbd5e1"/>
    <path d="M360 290 C350 340,330 370,300 405" stroke="#67e8f9" stroke-width="12" fill="none" stroke-linecap="round"/>
    <path d="M360 290 C360 350,360 380,360 420" stroke="#67e8f9" stroke-width="12" fill="none" stroke-linecap="round"/>
    <path d="M360 290 C370 340,390 370,420 405" stroke="#67e8f9" stroke-width="12" fill="none" stroke-linecap="round"/>
    <circle cx="300" cy="415" r="12" fill="#22d3ee"/>
    <circle cx="360" cy="430" r="12" fill="#22d3ee"/>
    <circle cx="420" cy="415" r="12" fill="#22d3ee"/>
  </g>

  <text x="600" y="640" text-anchor="middle" font-family="Arial, Helvetica, sans-serif" font-size="58" font-weight="700" fill="#f8fafc">Sprinkler Systems</text>
  <text x="600" y="690" text-anchor="middle" font-family="Arial, Helvetica, sans-serif" font-size="28" fill="#cbd5e1">Automatic suppression and full facility coverage</text>
</svg>